# xmcd
#
# Track frame offsets:
#	182
#	15077
#	30230
#	45180
#	58272
#	77752
#	90380
#	106400
#	125087
#	145205
#	162702
#	176592
#
# Disc length: 2532 seconds
#
# Revision: 1
# Processed by: cddbd v1.4PL0 Copyright (c) Steve Scherf et al.
# Submitted via: CDmax 1.8
#
DISCID=8f09e20c
DTITLE=Don Edwards - The Best Of Don Edwards
DYEAR=1998
DGENRE=Country
TTITLE0=The Habit
TTITLE1=The Cowboy's Song
TTITLE2=The Freedom Song
TTITLE3=Diamond Joe
TTITLE4=The Cowboy Life
TTITLE5=Prairie Lullabye
TTITLE6=The Master's Call
TTITLE7=Goin' Back To Texas
TTITLE8=Coyotes
TTITLE9=Will James
TTITLE10=Lone Star Trail
TTITLE11=The Colorado Trail
EXTD=
EXTT0=
EXTT1=
EXTT2=
EXTT3=
EXTT4=
EXTT5=
EXTT6=
EXTT7=
EXTT8=
EXTT9=
EXTT10=
EXTT11=
PLAYORDER=
